<svg xmlns="http://www.w3.org/2000/svg" viewBox="0 0 512 512">
  <defs>
    <linearGradient id="grad" x1="0%" y1="0%" x2="100%" y2="100%">
      <stop offset="0%" style="stop-color:#3b82f6;stop-opacity:1" />
      <stop offset="100%" style="stop-color:#1d4ed8;stop-opacity:1" />
    </linearGradient>
  </defs>
  <!-- Background circle -->
  <circle cx="256" cy="256" r="240" fill="url(#grad)"/>
  <!-- Shield shape -->
  <path d="M256 80 L400 140 L400 280 C400 360 340 420 256 450 C172 420 112 360 112 280 L112 140 Z"
        fill="white" fill-opacity="0.95"/>
  <!-- Heart rate line -->
  <path d="M150 270 L200 270 L220 220 L250 320 L280 240 L300 270 L360 270"
        stroke="#3b82f6" stroke-width="16" fill="none" stroke-linecap="round" stroke-linejoin="round"/>
  <!-- Small shield accent -->
  <path d="M256 120 L360 160 L360 260 C360 320 310 365 256 390 C202 365 152 320 152 260 L152 160 Z"
        fill="none" stroke="#3b82f6" stroke-width="4" opacity="0.3"/>
</svg>
